<mxfile host="Electron" modified="2024-11-24T08:45:06.515Z" agent="Mozilla/5.0 (Macintosh; Intel Mac OS X 10_15_7) AppleWebKit/537.36 (KHTML, like Gecko) draw.io/21.6.1 Chrome/112.0.5615.204 Electron/24.6.1 Safari/537.36" etag="uHyti7GYMO8f2R3EQU92" version="21.6.1" type="device">
  <diagram name="第 1 页" id="Ej94uCb0L1IUmglXUefa">
    <mxGraphModel dx="1522" dy="1541" grid="0" gridSize="10" guides="1" tooltips="1" connect="1" arrows="1" fold="1" page="0" pageScale="1" pageWidth="827" pageHeight="1169" math="0" shadow="0">
      <root>
        <mxCell id="0" />
        <mxCell id="1" parent="0" />
        <mxCell id="u__oFbVeFZprRWQxTikK-1" value="" style="edgeStyle=none;curved=1;rounded=0;orthogonalLoop=1;jettySize=auto;html=1;fontSize=12;startSize=8;endSize=8;labelBackgroundColor=none;strokeColor=#788AA3;fontColor=default;" parent="1" source="u__oFbVeFZprRWQxTikK-2" target="u__oFbVeFZprRWQxTikK-3" edge="1">
          <mxGeometry relative="1" as="geometry" />
        </mxCell>
        <mxCell id="u__oFbVeFZprRWQxTikK-2" value="restore-operator 控制器启动" style="rounded=1;whiteSpace=wrap;html=1;fontSize=16;flipH=1;labelBackgroundColor=none;fillColor=#B2C9AB;strokeColor=#788AA3;fontColor=#46495D;" parent="1" vertex="1">
          <mxGeometry x="-98" y="60.5" width="120" height="60" as="geometry" />
        </mxCell>
        <mxCell id="tc41EtUaQBB8lVggmnJ8-11" value="" style="edgeStyle=none;curved=1;rounded=0;orthogonalLoop=1;jettySize=auto;html=1;fontSize=12;startSize=8;endSize=8;" parent="1" source="u__oFbVeFZprRWQxTikK-3" target="tc41EtUaQBB8lVggmnJ8-4" edge="1">
          <mxGeometry relative="1" as="geometry" />
        </mxCell>
        <mxCell id="UB4245GVl7NjHLPQBV4J-2" value="" style="edgeStyle=none;curved=1;rounded=0;orthogonalLoop=1;jettySize=auto;html=1;fontSize=12;startSize=8;endSize=8;" edge="1" parent="1" source="u__oFbVeFZprRWQxTikK-3" target="UB4245GVl7NjHLPQBV4J-1">
          <mxGeometry relative="1" as="geometry" />
        </mxCell>
        <mxCell id="u__oFbVeFZprRWQxTikK-3" value="创建crd,如果创建失败隔立即重试" style="whiteSpace=wrap;html=1;fontSize=16;rounded=1;flipH=1;labelBackgroundColor=none;fillColor=#B2C9AB;strokeColor=#788AA3;fontColor=#46495D;" parent="1" vertex="1">
          <mxGeometry x="86" y="60.5" width="120" height="60" as="geometry" />
        </mxCell>
        <mxCell id="tc41EtUaQBB8lVggmnJ8-1" value="" style="edgeStyle=none;curved=1;rounded=0;orthogonalLoop=1;jettySize=auto;html=1;fontSize=12;startSize=8;endSize=8;entryX=0;entryY=0.5;entryDx=0;entryDy=0;labelBackgroundColor=none;strokeColor=#788AA3;fontColor=default;" parent="1" source="tc41EtUaQBB8lVggmnJ8-4" target="tc41EtUaQBB8lVggmnJ8-12" edge="1">
          <mxGeometry relative="1" as="geometry">
            <mxPoint x="602" y="-40" as="targetPoint" />
          </mxGeometry>
        </mxCell>
        <mxCell id="tc41EtUaQBB8lVggmnJ8-2" value="" style="edgeStyle=none;curved=1;rounded=0;orthogonalLoop=1;jettySize=auto;html=1;fontSize=12;startSize=8;endSize=8;labelBackgroundColor=none;strokeColor=#788AA3;fontColor=default;" parent="1" source="tc41EtUaQBB8lVggmnJ8-4" target="tc41EtUaQBB8lVggmnJ8-7" edge="1">
          <mxGeometry relative="1" as="geometry" />
        </mxCell>
        <mxCell id="tc41EtUaQBB8lVggmnJ8-3" style="edgeStyle=none;curved=1;rounded=0;orthogonalLoop=1;jettySize=auto;html=1;exitX=1;exitY=1;exitDx=0;exitDy=0;fontSize=12;startSize=8;endSize=8;entryX=0;entryY=0.5;entryDx=0;entryDy=0;labelBackgroundColor=none;strokeColor=#788AA3;fontColor=default;" parent="1" source="tc41EtUaQBB8lVggmnJ8-4" target="tc41EtUaQBB8lVggmnJ8-9" edge="1">
          <mxGeometry relative="1" as="geometry">
            <mxPoint x="592" y="199" as="targetPoint" />
          </mxGeometry>
        </mxCell>
        <mxCell id="tc41EtUaQBB8lVggmnJ8-14" value="" style="edgeStyle=none;curved=1;rounded=0;orthogonalLoop=1;jettySize=auto;html=1;fontSize=12;startSize=8;endSize=8;" parent="1" source="tc41EtUaQBB8lVggmnJ8-4" target="tc41EtUaQBB8lVggmnJ8-13" edge="1">
          <mxGeometry relative="1" as="geometry" />
        </mxCell>
        <mxCell id="tc41EtUaQBB8lVggmnJ8-4" value="启动协调器，默认处理所有 etcdrestore cr" style="whiteSpace=wrap;html=1;fontSize=16;rounded=1;flipH=1;labelBackgroundColor=none;fillColor=#B2C9AB;strokeColor=#788AA3;fontColor=#46495D;" parent="1" vertex="1">
          <mxGeometry x="263" y="46" width="192" height="89" as="geometry" />
        </mxCell>
        <mxCell id="tc41EtUaQBB8lVggmnJ8-5" style="edgeStyle=none;curved=1;rounded=0;orthogonalLoop=1;jettySize=auto;html=1;exitX=1;exitY=0.5;exitDx=0;exitDy=0;entryX=0;entryY=0.5;entryDx=0;entryDy=0;fontSize=12;startSize=8;endSize=8;labelBackgroundColor=none;strokeColor=#788AA3;fontColor=default;" parent="1" source="tc41EtUaQBB8lVggmnJ8-12" target="tc41EtUaQBB8lVggmnJ8-10" edge="1">
          <mxGeometry relative="1" as="geometry">
            <mxPoint x="722" y="-40" as="sourcePoint" />
          </mxGeometry>
        </mxCell>
        <mxCell id="tc41EtUaQBB8lVggmnJ8-6" value="" style="edgeStyle=none;curved=1;rounded=0;orthogonalLoop=1;jettySize=auto;html=1;fontSize=12;startSize=8;endSize=8;labelBackgroundColor=none;strokeColor=#788AA3;fontColor=default;" parent="1" source="tc41EtUaQBB8lVggmnJ8-7" target="tc41EtUaQBB8lVggmnJ8-10" edge="1">
          <mxGeometry relative="1" as="geometry" />
        </mxCell>
        <mxCell id="tc41EtUaQBB8lVggmnJ8-7" value="OnUpdate" style="whiteSpace=wrap;html=1;fontSize=16;rounded=1;labelBackgroundColor=none;fillColor=#B2C9AB;strokeColor=#788AA3;fontColor=#46495D;" parent="1" vertex="1">
          <mxGeometry x="602" y="60.5" width="120" height="60" as="geometry" />
        </mxCell>
        <mxCell id="tc41EtUaQBB8lVggmnJ8-8" style="edgeStyle=none;curved=1;rounded=0;orthogonalLoop=1;jettySize=auto;html=1;exitX=1;exitY=0.5;exitDx=0;exitDy=0;fontSize=12;startSize=8;endSize=8;labelBackgroundColor=none;strokeColor=#788AA3;fontColor=default;" parent="1" source="tc41EtUaQBB8lVggmnJ8-9" edge="1">
          <mxGeometry relative="1" as="geometry">
            <mxPoint x="840" y="95" as="targetPoint" />
          </mxGeometry>
        </mxCell>
        <mxCell id="tc41EtUaQBB8lVggmnJ8-9" value="OnDelete" style="whiteSpace=wrap;html=1;fontSize=16;rounded=1;labelBackgroundColor=none;fillColor=#B2C9AB;strokeColor=#788AA3;fontColor=#46495D;" parent="1" vertex="1">
          <mxGeometry x="602" y="178" width="120" height="60" as="geometry" />
        </mxCell>
        <mxCell id="tc41EtUaQBB8lVggmnJ8-10" value="入队" style="whiteSpace=wrap;html=1;fontSize=16;rounded=1;labelBackgroundColor=none;fillColor=#B2C9AB;strokeColor=#788AA3;fontColor=#46495D;" parent="1" vertex="1">
          <mxGeometry x="842" y="60.5" width="95" height="60" as="geometry" />
        </mxCell>
        <mxCell id="tc41EtUaQBB8lVggmnJ8-12" value="OnAdd" style="whiteSpace=wrap;html=1;fontSize=16;rounded=1;labelBackgroundColor=none;fillColor=#B2C9AB;strokeColor=#788AA3;fontColor=#46495D;" parent="1" vertex="1">
          <mxGeometry x="602" y="-69" width="120" height="60" as="geometry" />
        </mxCell>
        <mxCell id="tc41EtUaQBB8lVggmnJ8-15" style="edgeStyle=none;curved=1;rounded=0;orthogonalLoop=1;jettySize=auto;html=1;exitX=1;exitY=0.75;exitDx=0;exitDy=0;entryX=0.5;entryY=1;entryDx=0;entryDy=0;fontSize=12;startSize=8;endSize=8;dashed=1;" parent="1" source="tc41EtUaQBB8lVggmnJ8-13" target="tc41EtUaQBB8lVggmnJ8-10" edge="1">
          <mxGeometry relative="1" as="geometry" />
        </mxCell>
        <mxCell id="tc41EtUaQBB8lVggmnJ8-17" value="" style="edgeStyle=none;curved=1;rounded=0;orthogonalLoop=1;jettySize=auto;html=1;fontSize=12;startSize=8;endSize=8;entryX=0.5;entryY=0;entryDx=0;entryDy=0;" parent="1" source="tc41EtUaQBB8lVggmnJ8-13" target="tc41EtUaQBB8lVggmnJ8-21" edge="1">
          <mxGeometry relative="1" as="geometry">
            <mxPoint x="356" y="566" as="targetPoint" />
          </mxGeometry>
        </mxCell>
        <mxCell id="tc41EtUaQBB8lVggmnJ8-13" value="启动一个worker(串行处理 etcdbakup cr)" style="whiteSpace=wrap;html=1;fontSize=16;fillColor=#B2C9AB;strokeColor=#788AA3;fontColor=#46495D;rounded=1;labelBackgroundColor=none;" parent="1" vertex="1">
          <mxGeometry x="296" y="396" width="120" height="60" as="geometry" />
        </mxCell>
        <mxCell id="tc41EtUaQBB8lVggmnJ8-25" value="" style="edgeStyle=none;curved=1;rounded=0;orthogonalLoop=1;jettySize=auto;html=1;fontSize=12;startSize=8;endSize=8;" parent="1" source="tc41EtUaQBB8lVggmnJ8-21" target="tc41EtUaQBB8lVggmnJ8-24" edge="1">
          <mxGeometry relative="1" as="geometry" />
        </mxCell>
        <mxCell id="tc41EtUaQBB8lVggmnJ8-26" value="是" style="edgeLabel;html=1;align=center;verticalAlign=middle;resizable=0;points=[];fontSize=16;" parent="tc41EtUaQBB8lVggmnJ8-25" vertex="1" connectable="0">
          <mxGeometry x="-0.28" y="-1" relative="1" as="geometry">
            <mxPoint as="offset" />
          </mxGeometry>
        </mxCell>
        <mxCell id="UB4245GVl7NjHLPQBV4J-4" value="" style="edgeStyle=none;curved=1;rounded=0;orthogonalLoop=1;jettySize=auto;html=1;fontSize=12;startSize=8;endSize=8;" edge="1" parent="1" source="tc41EtUaQBB8lVggmnJ8-21" target="UB4245GVl7NjHLPQBV4J-3">
          <mxGeometry relative="1" as="geometry" />
        </mxCell>
        <mxCell id="tc41EtUaQBB8lVggmnJ8-21" value="处理成功或失败" style="rhombus;whiteSpace=wrap;html=1;fontSize=16;fillColor=#B2C9AB;strokeColor=#788AA3;fontColor=#46495D;rounded=1;labelBackgroundColor=none;" parent="1" vertex="1">
          <mxGeometry x="318" y="542" width="80" height="80" as="geometry" />
        </mxCell>
        <mxCell id="tc41EtUaQBB8lVggmnJ8-24" value="退出本次处理" style="whiteSpace=wrap;html=1;fontSize=16;fillColor=#B2C9AB;strokeColor=#788AA3;fontColor=#46495D;rounded=1;labelBackgroundColor=none;" parent="1" vertex="1">
          <mxGeometry x="498" y="552" width="120" height="60" as="geometry" />
        </mxCell>
        <mxCell id="tc41EtUaQBB8lVggmnJ8-51" style="edgeStyle=none;curved=1;rounded=0;orthogonalLoop=1;jettySize=auto;html=1;exitX=0.5;exitY=0;exitDx=0;exitDy=0;entryX=0.5;entryY=0;entryDx=0;entryDy=0;fontSize=12;startSize=8;endSize=8;dashed=1;" parent="1" target="tc41EtUaQBB8lVggmnJ8-49" edge="1">
          <mxGeometry relative="1" as="geometry">
            <Array as="points">
              <mxPoint x="1259" y="797" />
            </Array>
            <mxPoint x="997" y="907" as="sourcePoint" />
          </mxGeometry>
        </mxCell>
        <mxCell id="tc41EtUaQBB8lVggmnJ8-61" value="KS3/ABS/GCS/OS&lt;br&gt;其他服务类似" style="rounded=1;whiteSpace=wrap;html=1;fontSize=16;" parent="1" vertex="1">
          <mxGeometry x="423" y="-315" width="120" height="60" as="geometry" />
        </mxCell>
        <mxCell id="UB4245GVl7NjHLPQBV4J-100" value="" style="edgeStyle=none;curved=1;rounded=0;orthogonalLoop=1;jettySize=auto;html=1;fontSize=12;startSize=8;endSize=8;entryX=0;entryY=0.5;entryDx=0;entryDy=0;" edge="1" parent="1" source="UB4245GVl7NjHLPQBV4J-1" target="UB4245GVl7NjHLPQBV4J-99">
          <mxGeometry relative="1" as="geometry" />
        </mxCell>
        <mxCell id="UB4245GVl7NjHLPQBV4J-1" value="http 服务，接受backup 读取请求" style="whiteSpace=wrap;html=1;fontSize=16;fillColor=#B2C9AB;strokeColor=#788AA3;fontColor=#46495D;rounded=1;labelBackgroundColor=none;" vertex="1" parent="1">
          <mxGeometry x="250" y="-206" width="120" height="60" as="geometry" />
        </mxCell>
        <mxCell id="UB4245GVl7NjHLPQBV4J-6" value="" style="edgeStyle=none;curved=1;rounded=0;orthogonalLoop=1;jettySize=auto;html=1;fontSize=12;startSize=8;endSize=8;" edge="1" parent="1" source="UB4245GVl7NjHLPQBV4J-3" target="UB4245GVl7NjHLPQBV4J-5">
          <mxGeometry relative="1" as="geometry" />
        </mxCell>
        <mxCell id="UB4245GVl7NjHLPQBV4J-7" value="是" style="edgeLabel;html=1;align=center;verticalAlign=middle;resizable=0;points=[];fontSize=16;" vertex="1" connectable="0" parent="UB4245GVl7NjHLPQBV4J-6">
          <mxGeometry x="-0.125" y="1" relative="1" as="geometry">
            <mxPoint as="offset" />
          </mxGeometry>
        </mxCell>
        <mxCell id="UB4245GVl7NjHLPQBV4J-9" value="" style="edgeStyle=none;curved=1;rounded=0;orthogonalLoop=1;jettySize=auto;html=1;fontSize=12;startSize=8;endSize=8;" edge="1" parent="1" source="UB4245GVl7NjHLPQBV4J-3" target="UB4245GVl7NjHLPQBV4J-8">
          <mxGeometry relative="1" as="geometry" />
        </mxCell>
        <mxCell id="UB4245GVl7NjHLPQBV4J-3" value="er.Name!=&lt;br&gt;etcdCluster.Name" style="rhombus;whiteSpace=wrap;html=1;fontSize=16;fillColor=#B2C9AB;strokeColor=#788AA3;fontColor=#46495D;rounded=1;labelBackgroundColor=none;" vertex="1" parent="1">
          <mxGeometry x="282" y="710" width="154" height="80" as="geometry" />
        </mxCell>
        <mxCell id="UB4245GVl7NjHLPQBV4J-5" value="异常退出" style="whiteSpace=wrap;html=1;fontSize=16;fillColor=#B2C9AB;strokeColor=#788AA3;fontColor=#46495D;rounded=1;labelBackgroundColor=none;" vertex="1" parent="1">
          <mxGeometry x="500" y="720" width="120" height="60" as="geometry" />
        </mxCell>
        <mxCell id="UB4245GVl7NjHLPQBV4J-11" value="" style="edgeStyle=none;curved=1;rounded=0;orthogonalLoop=1;jettySize=auto;html=1;fontSize=12;startSize=8;endSize=8;" edge="1" parent="1" source="UB4245GVl7NjHLPQBV4J-8" target="UB4245GVl7NjHLPQBV4J-10">
          <mxGeometry relative="1" as="geometry" />
        </mxCell>
        <mxCell id="UB4245GVl7NjHLPQBV4J-8" value="恢复种子节点" style="whiteSpace=wrap;html=1;fontSize=16;fillColor=#B2C9AB;strokeColor=#788AA3;fontColor=#46495D;rounded=1;labelBackgroundColor=none;" vertex="1" parent="1">
          <mxGeometry x="299" y="862" width="120" height="60" as="geometry" />
        </mxCell>
        <mxCell id="UB4245GVl7NjHLPQBV4J-13" value="" style="edgeStyle=none;curved=1;rounded=0;orthogonalLoop=1;jettySize=auto;html=1;fontSize=12;startSize=8;endSize=8;" edge="1" parent="1" source="UB4245GVl7NjHLPQBV4J-10" target="UB4245GVl7NjHLPQBV4J-12">
          <mxGeometry relative="1" as="geometry" />
        </mxCell>
        <mxCell id="UB4245GVl7NjHLPQBV4J-10" value="删除原来都etcdcluster&amp;nbsp;" style="whiteSpace=wrap;html=1;fontSize=16;fillColor=#B2C9AB;strokeColor=#788AA3;fontColor=#46495D;rounded=1;labelBackgroundColor=none;" vertex="1" parent="1">
          <mxGeometry x="768" y="720" width="120" height="60" as="geometry" />
        </mxCell>
        <mxCell id="UB4245GVl7NjHLPQBV4J-15" value="" style="edgeStyle=none;curved=1;rounded=0;orthogonalLoop=1;jettySize=auto;html=1;fontSize=12;startSize=8;endSize=8;" edge="1" parent="1" source="UB4245GVl7NjHLPQBV4J-12" target="UB4245GVl7NjHLPQBV4J-14">
          <mxGeometry relative="1" as="geometry" />
        </mxCell>
        <mxCell id="UB4245GVl7NjHLPQBV4J-12" value="在原有etcdcluster cr基础修改etcd.Spec.Paused=true&lt;br&gt;phase=Running" style="whiteSpace=wrap;html=1;fontSize=16;fillColor=#B2C9AB;strokeColor=#788AA3;fontColor=#46495D;rounded=1;labelBackgroundColor=none;" vertex="1" parent="1">
          <mxGeometry x="705.5" y="881" width="245" height="60" as="geometry" />
        </mxCell>
        <mxCell id="UB4245GVl7NjHLPQBV4J-86" value="" style="edgeStyle=none;curved=1;rounded=0;orthogonalLoop=1;jettySize=auto;html=1;fontSize=12;startSize=8;endSize=8;" edge="1" parent="1" source="UB4245GVl7NjHLPQBV4J-14" target="UB4245GVl7NjHLPQBV4J-85">
          <mxGeometry relative="1" as="geometry" />
        </mxCell>
        <mxCell id="UB4245GVl7NjHLPQBV4J-88" value="" style="edgeStyle=none;curved=1;rounded=0;orthogonalLoop=1;jettySize=auto;html=1;fontSize=12;startSize=8;endSize=8;" edge="1" parent="1" source="UB4245GVl7NjHLPQBV4J-14" target="UB4245GVl7NjHLPQBV4J-87">
          <mxGeometry relative="1" as="geometry" />
        </mxCell>
        <mxCell id="UB4245GVl7NjHLPQBV4J-14" value="创建种子member" style="whiteSpace=wrap;html=1;fontSize=16;fillColor=#B2C9AB;strokeColor=#788AA3;fontColor=#46495D;rounded=1;labelBackgroundColor=none;" vertex="1" parent="1">
          <mxGeometry x="768" y="1023" width="120" height="60" as="geometry" />
        </mxCell>
        <mxCell id="UB4245GVl7NjHLPQBV4J-85" value="将etcd.Spec.Paused=false（最多重试一次）,后续由etcd-operator 接管" style="whiteSpace=wrap;html=1;fontSize=16;fillColor=#B2C9AB;strokeColor=#788AA3;fontColor=#46495D;rounded=1;labelBackgroundColor=none;" vertex="1" parent="1">
          <mxGeometry x="705.5" y="1171" width="245" height="60" as="geometry" />
        </mxCell>
        <mxCell id="UB4245GVl7NjHLPQBV4J-87" value="" style="whiteSpace=wrap;html=1;fontSize=16;fillColor=#B2C9AB;strokeColor=#788AA3;fontColor=#46495D;rounded=1;labelBackgroundColor=none;" vertex="1" parent="1">
          <mxGeometry x="1017" y="915" width="334" height="270" as="geometry" />
        </mxCell>
        <mxCell id="UB4245GVl7NjHLPQBV4J-93" style="edgeStyle=none;curved=1;rounded=0;orthogonalLoop=1;jettySize=auto;html=1;fontSize=12;startSize=8;endSize=8;" edge="1" parent="1" source="UB4245GVl7NjHLPQBV4J-89" target="UB4245GVl7NjHLPQBV4J-90">
          <mxGeometry relative="1" as="geometry" />
        </mxCell>
        <mxCell id="UB4245GVl7NjHLPQBV4J-98" style="edgeStyle=none;curved=1;rounded=0;orthogonalLoop=1;jettySize=auto;html=1;exitX=0.5;exitY=0;exitDx=0;exitDy=0;exitPerimeter=0;entryX=1;entryY=0.75;entryDx=0;entryDy=0;fontSize=12;startSize=8;endSize=8;dashed=1;" edge="1" parent="1" source="UB4245GVl7NjHLPQBV4J-89" target="UB4245GVl7NjHLPQBV4J-1">
          <mxGeometry relative="1" as="geometry" />
        </mxCell>
        <mxCell id="UB4245GVl7NjHLPQBV4J-89" value="获取db文件" style="shape=cylinder3;whiteSpace=wrap;html=1;boundedLbl=1;backgroundOutline=1;size=15;fontSize=16;" vertex="1" parent="1">
          <mxGeometry x="1059" y="965" width="60" height="80" as="geometry" />
        </mxCell>
        <mxCell id="UB4245GVl7NjHLPQBV4J-90" value="执行restore" style="shape=cylinder3;whiteSpace=wrap;html=1;boundedLbl=1;backgroundOutline=1;size=15;fontSize=16;" vertex="1" parent="1">
          <mxGeometry x="1209" y="965" width="60" height="80" as="geometry" />
        </mxCell>
        <mxCell id="UB4245GVl7NjHLPQBV4J-97" value="" style="edgeStyle=none;curved=1;rounded=0;orthogonalLoop=1;jettySize=auto;html=1;fontSize=12;startSize=8;endSize=8;" edge="1" parent="1" source="UB4245GVl7NjHLPQBV4J-91" target="UB4245GVl7NjHLPQBV4J-92">
          <mxGeometry relative="1" as="geometry" />
        </mxCell>
        <mxCell id="UB4245GVl7NjHLPQBV4J-91" value="check-dns" style="shape=cylinder3;whiteSpace=wrap;html=1;boundedLbl=1;backgroundOutline=1;size=15;fontSize=16;" vertex="1" parent="1">
          <mxGeometry x="1057" y="1067" width="60" height="80" as="geometry" />
        </mxCell>
        <mxCell id="UB4245GVl7NjHLPQBV4J-92" value="etcd" style="shape=cylinder3;whiteSpace=wrap;html=1;boundedLbl=1;backgroundOutline=1;size=15;fontSize=16;" vertex="1" parent="1">
          <mxGeometry x="1209" y="1065" width="60" height="80" as="geometry" />
        </mxCell>
        <mxCell id="UB4245GVl7NjHLPQBV4J-102" value="" style="edgeStyle=none;curved=1;rounded=0;orthogonalLoop=1;jettySize=auto;html=1;fontSize=12;startSize=8;endSize=8;" edge="1" parent="1" source="UB4245GVl7NjHLPQBV4J-99" target="UB4245GVl7NjHLPQBV4J-101">
          <mxGeometry relative="1" as="geometry" />
        </mxCell>
        <mxCell id="UB4245GVl7NjHLPQBV4J-99" value="根据路径解析出restore名称" style="whiteSpace=wrap;html=1;fontSize=16;fillColor=#B2C9AB;strokeColor=#788AA3;fontColor=#46495D;rounded=1;labelBackgroundColor=none;" vertex="1" parent="1">
          <mxGeometry x="416" y="-636" width="120" height="60" as="geometry" />
        </mxCell>
        <mxCell id="UB4245GVl7NjHLPQBV4J-104" value="" style="edgeStyle=none;curved=1;rounded=0;orthogonalLoop=1;jettySize=auto;html=1;fontSize=12;startSize=8;endSize=8;" edge="1" parent="1" source="UB4245GVl7NjHLPQBV4J-101" target="UB4245GVl7NjHLPQBV4J-103">
          <mxGeometry relative="1" as="geometry" />
        </mxCell>
        <mxCell id="UB4245GVl7NjHLPQBV4J-101" value="查询restoreCr" style="whiteSpace=wrap;html=1;fontSize=16;fillColor=#B2C9AB;strokeColor=#788AA3;fontColor=#46495D;rounded=1;labelBackgroundColor=none;" vertex="1" parent="1">
          <mxGeometry x="419" y="-528" width="120" height="60" as="geometry" />
        </mxCell>
        <mxCell id="UB4245GVl7NjHLPQBV4J-106" value="" style="edgeStyle=none;curved=1;rounded=0;orthogonalLoop=1;jettySize=auto;html=1;fontSize=12;startSize=8;endSize=8;" edge="1" parent="1" source="UB4245GVl7NjHLPQBV4J-103" target="UB4245GVl7NjHLPQBV4J-105">
          <mxGeometry relative="1" as="geometry" />
        </mxCell>
        <mxCell id="UB4245GVl7NjHLPQBV4J-107" value="" style="edgeStyle=none;curved=1;rounded=0;orthogonalLoop=1;jettySize=auto;html=1;fontSize=12;startSize=8;endSize=8;" edge="1" parent="1" source="UB4245GVl7NjHLPQBV4J-103" target="tc41EtUaQBB8lVggmnJ8-61">
          <mxGeometry relative="1" as="geometry" />
        </mxCell>
        <mxCell id="UB4245GVl7NjHLPQBV4J-103" value="S3?" style="rhombus;whiteSpace=wrap;html=1;fontSize=16;fillColor=#B2C9AB;strokeColor=#788AA3;fontColor=#46495D;rounded=1;labelBackgroundColor=none;" vertex="1" parent="1">
          <mxGeometry x="439" y="-425" width="80" height="80" as="geometry" />
        </mxCell>
        <mxCell id="UB4245GVl7NjHLPQBV4J-105" value="根据restore cr 中的地址、认证信息，读取文件下载服务" style="whiteSpace=wrap;html=1;fontSize=16;fillColor=#B2C9AB;strokeColor=#788AA3;fontColor=#46495D;rounded=1;labelBackgroundColor=none;" vertex="1" parent="1">
          <mxGeometry x="619" y="-415" width="150" height="60" as="geometry" />
        </mxCell>
      </root>
    </mxGraphModel>
  </diagram>
</mxfile>
